<mxfile host="app.diagrams.net" agent="Mozilla/5.0 (Windows NT 10.0; Win64; x64) AppleWebKit/537.36 (KHTML, like Gecko) Chrome/127.0.0.0 Safari/537.36 OPR/113.0.0.0" version="24.8.3">
  <diagram id="C5RBs43oDa-KdzZeNtuy" name="Page-1">
    <mxGraphModel dx="1187" dy="655" grid="1" gridSize="10" guides="1" tooltips="1" connect="1" arrows="1" fold="1" page="1" pageScale="1" pageWidth="827" pageHeight="1169" math="0" shadow="0">
      <root>
        <mxCell id="WIyWlLk6GJQsqaUBKTNV-0" />
        <mxCell id="WIyWlLk6GJQsqaUBKTNV-1" parent="WIyWlLk6GJQsqaUBKTNV-0" />
        <mxCell id="jfT-gJA6F0-5zdSKR0zC-0" value="" style="edgeStyle=orthogonalEdgeStyle;rounded=0;orthogonalLoop=1;jettySize=auto;html=1;" edge="1" parent="WIyWlLk6GJQsqaUBKTNV-1" source="jfT-gJA6F0-5zdSKR0zC-1" target="jfT-gJA6F0-5zdSKR0zC-3">
          <mxGeometry relative="1" as="geometry" />
        </mxCell>
        <mxCell id="jfT-gJA6F0-5zdSKR0zC-1" value="Початок" style="ellipse;whiteSpace=wrap;html=1;" vertex="1" parent="WIyWlLk6GJQsqaUBKTNV-1">
          <mxGeometry x="340" y="100" width="120" height="80" as="geometry" />
        </mxCell>
        <mxCell id="jfT-gJA6F0-5zdSKR0zC-2" value="" style="edgeStyle=orthogonalEdgeStyle;rounded=0;orthogonalLoop=1;jettySize=auto;html=1;" edge="1" parent="WIyWlLk6GJQsqaUBKTNV-1" source="jfT-gJA6F0-5zdSKR0zC-3" target="jfT-gJA6F0-5zdSKR0zC-5">
          <mxGeometry relative="1" as="geometry" />
        </mxCell>
        <mxCell id="jfT-gJA6F0-5zdSKR0zC-3" value="a, b, c, d, e,&lt;div&gt;result, choice1&lt;/div&gt;" style="shape=internalStorage;whiteSpace=wrap;html=1;backgroundOutline=1;" vertex="1" parent="WIyWlLk6GJQsqaUBKTNV-1">
          <mxGeometry x="310" y="220" width="180" height="120" as="geometry" />
        </mxCell>
        <mxCell id="jfT-gJA6F0-5zdSKR0zC-12" value="" style="edgeStyle=orthogonalEdgeStyle;rounded=0;orthogonalLoop=1;jettySize=auto;html=1;" edge="1" parent="WIyWlLk6GJQsqaUBKTNV-1" source="jfT-gJA6F0-5zdSKR0zC-5" target="jfT-gJA6F0-5zdSKR0zC-11">
          <mxGeometry relative="1" as="geometry" />
        </mxCell>
        <mxCell id="jfT-gJA6F0-5zdSKR0zC-5" value="&lt;p&gt;&lt;font style=&quot;font-size: 12px;&quot;&gt;Output:&amp;nbsp;&lt;span style=&quot;font-family: Consolas, &amp;quot;Courier New&amp;quot;, monospace; white-space: pre;&quot;&gt;Choose type of data: &lt;/span&gt;&lt;span style=&quot;font-family: Consolas, &amp;quot;Courier New&amp;quot;, monospace; white-space: pre;&quot;&gt;1&lt;/span&gt;&lt;span style=&quot;font-family: Consolas, &amp;quot;Courier New&amp;quot;, monospace; white-space: pre;&quot;&gt; for double or &lt;/span&gt;&lt;span style=&quot;font-family: Consolas, &amp;quot;Courier New&amp;quot;, monospace; white-space: pre;&quot;&gt;2&lt;/span&gt;&lt;span style=&quot;font-family: Consolas, &amp;quot;Courier New&amp;quot;, monospace; white-space: pre;&quot;&gt; for float&lt;/span&gt;&lt;/font&gt;&lt;/p&gt;" style="shape=parallelogram;perimeter=parallelogramPerimeter;whiteSpace=wrap;html=1;fixedSize=1;" vertex="1" parent="WIyWlLk6GJQsqaUBKTNV-1">
          <mxGeometry x="173.5" y="380" width="453" height="60" as="geometry" />
        </mxCell>
        <mxCell id="jfT-gJA6F0-5zdSKR0zC-6" value="" style="edgeStyle=orthogonalEdgeStyle;rounded=0;orthogonalLoop=1;jettySize=auto;html=1;" edge="1" parent="WIyWlLk6GJQsqaUBKTNV-1" source="jfT-gJA6F0-5zdSKR0zC-7" target="jfT-gJA6F0-5zdSKR0zC-9">
          <mxGeometry relative="1" as="geometry" />
        </mxCell>
        <mxCell id="jfT-gJA6F0-5zdSKR0zC-7" value="&lt;div style=&quot;line-height: 22px; white-space: pre;&quot;&gt;&lt;div style=&quot;&quot;&gt;&lt;span style=&quot;background-color: rgb(255, 255, 255);&quot;&gt;&lt;font face=&quot;Helvetica&quot;&gt;c = pow(a-b, 4.0);&lt;/font&gt;&lt;/span&gt;&lt;/div&gt;&lt;div style=&quot;&quot;&gt;&lt;span style=&quot;background-color: rgb(255, 255, 255);&quot;&gt;&lt;font face=&quot;L578_MjS-4KGwPgJQ-6D&quot;&gt;&amp;nbsp; &amp;nbsp; &amp;nbsp; &amp;nbsp; d = pow(a, 4.0) - 4.0 * pow(a, 3.0) * b;&lt;/font&gt;&lt;/span&gt;&lt;/div&gt;&lt;div style=&quot;&quot;&gt;&lt;span style=&quot;background-color: rgb(255, 255, 255);&quot;&gt;&lt;font face=&quot;L578_MjS-4KGwPgJQ-6D&quot;&gt;&amp;nbsp; &amp;nbsp; &amp;nbsp; &amp;nbsp; e = 6.0*pow(a, 2.0)*pow(b, 2.0) - 4.0*a*pow(b, 3.0) + pow(b, 4.0);&lt;/font&gt;&lt;/span&gt;&lt;/div&gt;&lt;div style=&quot;&quot;&gt;&lt;span style=&quot;background-color: rgb(255, 255, 255);&quot;&gt;&lt;font face=&quot;L578_MjS-4KGwPgJQ-6D&quot;&gt;&amp;nbsp; &amp;nbsp; &amp;nbsp; &amp;nbsp; result = double((c-d)/e);&lt;/font&gt;&lt;/span&gt;&lt;/div&gt;&lt;/div&gt;" style="rounded=1;whiteSpace=wrap;html=1;align=center;" vertex="1" parent="WIyWlLk6GJQsqaUBKTNV-1">
          <mxGeometry x="560" y="690" width="510" height="100" as="geometry" />
        </mxCell>
        <mxCell id="jfT-gJA6F0-5zdSKR0zC-8" value="" style="edgeStyle=orthogonalEdgeStyle;rounded=0;orthogonalLoop=1;jettySize=auto;html=1;" edge="1" parent="WIyWlLk6GJQsqaUBKTNV-1" source="jfT-gJA6F0-5zdSKR0zC-9" target="jfT-gJA6F0-5zdSKR0zC-10">
          <mxGeometry relative="1" as="geometry">
            <Array as="points">
              <mxPoint x="1120" y="890" />
              <mxPoint x="1120" y="1330" />
            </Array>
          </mxGeometry>
        </mxCell>
        <mxCell id="jfT-gJA6F0-5zdSKR0zC-9" value="Output: result" style="shape=parallelogram;perimeter=parallelogramPerimeter;whiteSpace=wrap;html=1;fixedSize=1;" vertex="1" parent="WIyWlLk6GJQsqaUBKTNV-1">
          <mxGeometry x="715" y="850" width="200" height="80" as="geometry" />
        </mxCell>
        <mxCell id="jfT-gJA6F0-5zdSKR0zC-10" value="Кінець" style="ellipse;whiteSpace=wrap;html=1;" vertex="1" parent="WIyWlLk6GJQsqaUBKTNV-1">
          <mxGeometry x="340" y="1290" width="120" height="80" as="geometry" />
        </mxCell>
        <mxCell id="jfT-gJA6F0-5zdSKR0zC-15" value="" style="edgeStyle=orthogonalEdgeStyle;rounded=0;orthogonalLoop=1;jettySize=auto;html=1;" edge="1" parent="WIyWlLk6GJQsqaUBKTNV-1" source="jfT-gJA6F0-5zdSKR0zC-11" target="jfT-gJA6F0-5zdSKR0zC-14">
          <mxGeometry relative="1" as="geometry" />
        </mxCell>
        <mxCell id="jfT-gJA6F0-5zdSKR0zC-11" value="&lt;p&gt;Input: choice1&lt;/p&gt;" style="shape=parallelogram;perimeter=parallelogramPerimeter;whiteSpace=wrap;html=1;fixedSize=1;" vertex="1" parent="WIyWlLk6GJQsqaUBKTNV-1">
          <mxGeometry x="173.5" y="490" width="453" height="60" as="geometry" />
        </mxCell>
        <mxCell id="jfT-gJA6F0-5zdSKR0zC-17" value="" style="edgeStyle=orthogonalEdgeStyle;rounded=0;orthogonalLoop=1;jettySize=auto;html=1;" edge="1" parent="WIyWlLk6GJQsqaUBKTNV-1" source="jfT-gJA6F0-5zdSKR0zC-14" target="jfT-gJA6F0-5zdSKR0zC-16">
          <mxGeometry relative="1" as="geometry" />
        </mxCell>
        <mxCell id="jfT-gJA6F0-5zdSKR0zC-14" value="switch (choice1)" style="rounded=0;whiteSpace=wrap;html=1;" vertex="1" parent="WIyWlLk6GJQsqaUBKTNV-1">
          <mxGeometry x="340" y="600" width="120" height="60" as="geometry" />
        </mxCell>
        <mxCell id="jfT-gJA6F0-5zdSKR0zC-18" value="" style="edgeStyle=orthogonalEdgeStyle;rounded=0;orthogonalLoop=1;jettySize=auto;html=1;" edge="1" parent="WIyWlLk6GJQsqaUBKTNV-1" source="jfT-gJA6F0-5zdSKR0zC-20" target="jfT-gJA6F0-5zdSKR0zC-7">
          <mxGeometry relative="1" as="geometry" />
        </mxCell>
        <mxCell id="jfT-gJA6F0-5zdSKR0zC-28" style="edgeStyle=orthogonalEdgeStyle;rounded=0;orthogonalLoop=1;jettySize=auto;html=1;entryX=0.5;entryY=0;entryDx=0;entryDy=0;" edge="1" parent="WIyWlLk6GJQsqaUBKTNV-1" source="jfT-gJA6F0-5zdSKR0zC-30" target="jfT-gJA6F0-5zdSKR0zC-25">
          <mxGeometry relative="1" as="geometry" />
        </mxCell>
        <mxCell id="jfT-gJA6F0-5zdSKR0zC-16" value="Case 1" style="rhombus;whiteSpace=wrap;html=1;" vertex="1" parent="WIyWlLk6GJQsqaUBKTNV-1">
          <mxGeometry x="335" y="700" width="130" height="80" as="geometry" />
        </mxCell>
        <mxCell id="jfT-gJA6F0-5zdSKR0zC-19" value="" style="edgeStyle=orthogonalEdgeStyle;rounded=0;orthogonalLoop=1;jettySize=auto;html=1;endArrow=none;endFill=0;" edge="1" parent="WIyWlLk6GJQsqaUBKTNV-1" source="jfT-gJA6F0-5zdSKR0zC-16" target="jfT-gJA6F0-5zdSKR0zC-20">
          <mxGeometry relative="1" as="geometry">
            <mxPoint x="465" y="740" as="sourcePoint" />
            <mxPoint x="560" y="740" as="targetPoint" />
          </mxGeometry>
        </mxCell>
        <mxCell id="jfT-gJA6F0-5zdSKR0zC-20" value="True" style="text;html=1;align=center;verticalAlign=middle;whiteSpace=wrap;rounded=0;" vertex="1" parent="WIyWlLk6GJQsqaUBKTNV-1">
          <mxGeometry x="480" y="725" width="60" height="30" as="geometry" />
        </mxCell>
        <mxCell id="jfT-gJA6F0-5zdSKR0zC-21" value="" style="edgeStyle=orthogonalEdgeStyle;rounded=0;orthogonalLoop=1;jettySize=auto;html=1;" edge="1" parent="WIyWlLk6GJQsqaUBKTNV-1" source="jfT-gJA6F0-5zdSKR0zC-22" target="jfT-gJA6F0-5zdSKR0zC-23">
          <mxGeometry relative="1" as="geometry" />
        </mxCell>
        <mxCell id="jfT-gJA6F0-5zdSKR0zC-22" value="&lt;div style=&quot;line-height: 22px; white-space: pre;&quot;&gt;&lt;div style=&quot;font-size: 10px;&quot;&gt;&lt;div style=&quot;line-height: 22px;&quot;&gt;&lt;div style=&quot;&quot;&gt;&lt;span style=&quot;background-color: rgb(255, 255, 255);&quot;&gt;&lt;font style=&quot;font-size: 10px;&quot; face=&quot;Helvetica&quot;&gt;float c = pow((float)a-(float)b, 4.0f);&lt;/font&gt;&lt;/span&gt;&lt;/div&gt;&lt;div style=&quot;&quot;&gt;&lt;span style=&quot;background-color: rgb(255, 255, 255);&quot;&gt;&lt;font style=&quot;font-size: 10px;&quot; face=&quot;RrGOQSwc_oRPMZOTUvMV&quot;&gt;&amp;nbsp; &amp;nbsp; &amp;nbsp; &amp;nbsp; float d = pow((float)a, 4.0f) - 4.0f * pow((float)a, 3.0f) * (float)b;&lt;/font&gt;&lt;/span&gt;&lt;/div&gt;&lt;div style=&quot;&quot;&gt;&lt;span style=&quot;background-color: rgb(255, 255, 255);&quot;&gt;&lt;font style=&quot;font-size: 10px;&quot; face=&quot;RrGOQSwc_oRPMZOTUvMV&quot;&gt;&amp;nbsp; &amp;nbsp; &amp;nbsp; &amp;nbsp; float e = 6.0f*pow((float)a, 2.0f)*pow((float)b, 2.0f) - 4.0f*(float)a*pow((float)b, 3.0f) + pow((float)b, 4.0f);&lt;/font&gt;&lt;/span&gt;&lt;/div&gt;&lt;div style=&quot;&quot;&gt;&lt;span style=&quot;background-color: rgb(255, 255, 255);&quot;&gt;&lt;font style=&quot;font-size: 10px;&quot; face=&quot;RrGOQSwc_oRPMZOTUvMV&quot;&gt;&amp;nbsp; &amp;nbsp; &amp;nbsp; &amp;nbsp; float result = ((float)c-(float)d)/(float)e;&lt;/font&gt;&lt;/span&gt;&lt;/div&gt;&lt;/div&gt;&lt;/div&gt;&lt;/div&gt;" style="rounded=1;whiteSpace=wrap;html=1;align=center;" vertex="1" parent="WIyWlLk6GJQsqaUBKTNV-1">
          <mxGeometry x="560" y="970" width="510" height="100" as="geometry" />
        </mxCell>
        <mxCell id="jfT-gJA6F0-5zdSKR0zC-34" style="edgeStyle=orthogonalEdgeStyle;rounded=0;orthogonalLoop=1;jettySize=auto;html=1;exitX=1;exitY=0.5;exitDx=0;exitDy=0;endArrow=none;endFill=0;" edge="1" parent="WIyWlLk6GJQsqaUBKTNV-1" source="jfT-gJA6F0-5zdSKR0zC-23">
          <mxGeometry relative="1" as="geometry">
            <mxPoint x="1120" y="1170" as="targetPoint" />
          </mxGeometry>
        </mxCell>
        <mxCell id="jfT-gJA6F0-5zdSKR0zC-23" value="Output: result" style="shape=parallelogram;perimeter=parallelogramPerimeter;whiteSpace=wrap;html=1;fixedSize=1;" vertex="1" parent="WIyWlLk6GJQsqaUBKTNV-1">
          <mxGeometry x="715" y="1130" width="200" height="80" as="geometry" />
        </mxCell>
        <mxCell id="jfT-gJA6F0-5zdSKR0zC-24" value="" style="edgeStyle=orthogonalEdgeStyle;rounded=0;orthogonalLoop=1;jettySize=auto;html=1;" edge="1" parent="WIyWlLk6GJQsqaUBKTNV-1" source="jfT-gJA6F0-5zdSKR0zC-27" target="jfT-gJA6F0-5zdSKR0zC-22">
          <mxGeometry relative="1" as="geometry" />
        </mxCell>
        <mxCell id="jfT-gJA6F0-5zdSKR0zC-25" value="Case 2" style="rhombus;whiteSpace=wrap;html=1;" vertex="1" parent="WIyWlLk6GJQsqaUBKTNV-1">
          <mxGeometry x="335" y="980" width="130" height="80" as="geometry" />
        </mxCell>
        <mxCell id="jfT-gJA6F0-5zdSKR0zC-26" value="" style="edgeStyle=orthogonalEdgeStyle;rounded=0;orthogonalLoop=1;jettySize=auto;html=1;" edge="1" parent="WIyWlLk6GJQsqaUBKTNV-1" source="jfT-gJA6F0-5zdSKR0zC-25" target="jfT-gJA6F0-5zdSKR0zC-27">
          <mxGeometry relative="1" as="geometry">
            <mxPoint x="465" y="1020" as="sourcePoint" />
            <mxPoint x="560" y="1020" as="targetPoint" />
          </mxGeometry>
        </mxCell>
        <mxCell id="jfT-gJA6F0-5zdSKR0zC-27" value="True" style="text;html=1;align=center;verticalAlign=middle;whiteSpace=wrap;rounded=0;" vertex="1" parent="WIyWlLk6GJQsqaUBKTNV-1">
          <mxGeometry x="480" y="1005" width="60" height="30" as="geometry" />
        </mxCell>
        <mxCell id="jfT-gJA6F0-5zdSKR0zC-29" value="" style="edgeStyle=orthogonalEdgeStyle;rounded=0;orthogonalLoop=1;jettySize=auto;html=1;entryX=0.5;entryY=0;entryDx=0;entryDy=0;endArrow=none;endFill=0;" edge="1" parent="WIyWlLk6GJQsqaUBKTNV-1" source="jfT-gJA6F0-5zdSKR0zC-16" target="jfT-gJA6F0-5zdSKR0zC-30">
          <mxGeometry relative="1" as="geometry">
            <mxPoint x="400" y="780" as="sourcePoint" />
            <mxPoint x="400" y="980" as="targetPoint" />
          </mxGeometry>
        </mxCell>
        <mxCell id="jfT-gJA6F0-5zdSKR0zC-30" value="False" style="text;html=1;align=center;verticalAlign=middle;whiteSpace=wrap;rounded=0;" vertex="1" parent="WIyWlLk6GJQsqaUBKTNV-1">
          <mxGeometry x="370" y="855" width="60" height="30" as="geometry" />
        </mxCell>
      </root>
    </mxGraphModel>
  </diagram>
</mxfile>
